<?xml version="1.0" encoding="UTF-8"?>
<svg width="283px" height="150px" viewBox="0 0 283 150" version="1.1" xmlns="http://www.w3.org/2000/svg" xmlns:xlink="http://www.w3.org/1999/xlink">
    <!-- Generator: Sketch 52.4 (67378) - http://www.bohemiancoding.com/sketch -->
    <title>Artboard Copy 15</title>
    <desc>Created with Sketch.</desc>
    <g id="Artboard-Copy-15" stroke="none" stroke-width="1" fill="none" fill-rule="evenodd">
        <g id="Group-19" transform="translate(1.000000, 47.000000)" fill="#C7C7C7">
            <path d="M0,18.5162085 C0.528496523,18.462745 1.05410509,18.3766093 1.58548957,18.3706689 C2.90239894,18.3469073 4.22219627,18.3617583 5.654624,18.3617583 C5.654624,17.9637519 5.64884809,17.6429706 5.654624,17.3221893 C5.70949523,14.7678198 5.65751196,12.20751 5.83656543,9.66502126 C6.18312053,4.75528551 9.03064824,1.28906553 13.8159965,0.594039414 C17.5559036,0.0504933502 21.3882254,0.175241627 25.234987,0 L25.234987,9.8283821 C24.4292464,9.8283821 23.6552734,9.8254119 22.8841883,9.8313523 C21.7752119,9.83729269 20.6662356,9.81650131 19.5572593,9.86402447 C17.9168985,9.932339 17.0043034,10.7491432 16.9234406,12.403543 C16.8310259,14.3430816 16.9032249,16.2885607 16.9032249,18.3320563 L25.3360656,18.3320563 C24.9981744,21.6200645 24.671835,24.7981753 24.3397197,28.0238093 L16.9032249,28.0238093 L16.9032249,55.8367347 L5.66039992,55.8367347 L5.66039992,28.0238093 L0,28.0238093 L0,18.5162085 Z" id="Fill-126"></path>
            <path d="M139.331697,47.3807194 C139.794991,47.4276906 140.205169,47.5098902 140.612395,47.5040188 C142.149824,47.4864046 143.704958,47.5656685 145.230583,47.3807194 C148.231667,47.0166926 149.577286,45.5459069 149.656961,42.5368143 C149.742537,39.2458946 149.724832,35.9461677 149.674666,32.6552479 C149.633353,30.2039384 148.568072,29.0003014 146.133564,28.5540749 C143.949884,28.151884 141.952112,28.8505807 139.977948,29.6813838 C139.429077,29.9133041 139.272678,30.2244883 139.275629,30.7969498 C139.299237,36.0401101 139.290384,41.2803347 139.293335,46.5205593 C139.293335,46.7906437 139.316942,47.0607281 139.331697,47.3807194 M127.831967,55.4773802 L127.831967,4.22886425 C131.629799,3.59768874 135.409926,2.96944893 139.284482,2.32653061 L139.284482,20.0669661 C140.996015,19.735232 142.624922,19.3389125 144.277436,19.1128636 C147.550005,18.6666371 150.828475,18.7429653 154.042026,19.5708328 C157.949042,20.5807136 160.2242,23.1465154 160.80258,27.095032 C161.082917,28.9856229 161.171445,30.9202492 161.195052,32.8343256 C161.242267,36.4334939 161.257021,40.0355979 161.133083,43.6288948 C161.02685,46.7612867 160.3865,49.7791864 158.23233,52.2627886 C156.364398,54.4146568 153.89743,55.5038015 151.19734,56.1261699 C147.431968,56.9980728 143.595774,57.1654077 139.765482,56.8571592 C136.038472,56.5577178 132.323265,56.0557131 128.602157,55.6388437 C128.360182,55.6124224 128.121157,55.5390299 127.831967,55.4773802" id="Fill-127"></path>
            <path d="M247.581585,2.32653061 L247.581585,35.8149589 C247.635261,35.8386822 247.688936,35.8624056 247.742612,35.8861289 C248.210782,35.1625677 248.681935,34.4449373 249.144141,33.7213761 C252.00982,29.208015 254.878482,24.7005846 257.732233,20.1812926 C258.009557,19.7424112 258.304773,19.5170397 258.85942,19.5200051 C262.625657,19.5437284 266.394875,19.5318668 270.15813,19.5348322 C270.265481,19.5348322 270.375814,19.5555901 270.623318,19.5822788 C270.426508,19.9381286 270.280391,20.2494971 270.101472,20.5371423 C266.56783,26.1032258 263.043134,31.6722746 259.485636,37.2235309 C259.193402,37.6831702 259.232168,37.9737808 259.4916,38.3978351 C263.090845,44.3405262 266.675181,50.2921135 270.259517,56.2437009 C270.381778,56.4423836 270.477201,56.6588589 270.635246,56.9820891 L267.86499,56.9820891 C264.909851,56.9820891 261.948748,56.9583658 258.993609,56.9998816 C258.340557,57.0058124 257.994647,56.7893372 257.672594,56.2525971 C254.475915,50.9059544 251.249416,45.5741387 248.034846,40.2363923 C247.948368,40.0970178 247.846981,39.9665395 247.617369,39.6433093 L247.617369,56.9316771 L236.086066,56.9316771 L236.086066,4.2392231 C239.873176,3.60758977 243.66625,2.97892185 247.581585,2.32653061" id="Fill-128"></path>
            <path d="M111.782323,32.2934121 C111.808709,30.3531137 112.060847,28.3685162 110.281223,26.9893391 C108.879805,25.8966291 105.713422,25.8375637 104.17714,26.8446288 C102.174696,28.1647406 102.385788,30.2320296 102.385788,32.2934121 L111.782323,32.2934121 Z M123.134392,40.0427928 L102.53238,40.0427928 C101.600056,43.3297824 103.49109,45.9729591 106.950657,46.1619684 C111.228206,46.3952767 115.488164,46.1501553 119.715871,45.4147911 C120.522126,45.2759874 121.334245,45.1578566 122.213796,45.0249594 L122.213796,54.380919 C120.835833,54.6349002 119.422688,54.927274 118.000747,55.1546758 C114.36527,55.7394232 110.697543,55.9136662 107.023953,55.8073484 C103.429522,55.703984 99.9494322,55.0749375 96.8739361,53.0342278 C93.6518482,50.9049201 91.9220648,47.7774071 91.3444931,44.0356139 C91.0395822,42.056923 91.0190593,40.0221199 91.0014683,38.0138962 C90.9750818,35.2821214 90.9311042,32.5355803 91.1568556,29.8185718 C91.6904498,23.3597701 95.1529483,19.4348742 101.49451,18.0793233 C105.813104,17.1549497 110.161017,17.2051553 114.409248,18.5105007 C119.381642,20.0402946 122.334001,23.5074337 122.89105,28.6756563 C123.286848,32.3377112 123.137324,36.0588315 123.225279,39.7533723 C123.228211,39.8301573 123.181302,39.9069424 123.134392,40.0427928 Z" id="Fill-129"></path>
            <path d="M185.366965,36.6739509 L185.355282,36.6739509 C185.355282,34.8755868 185.378649,33.0772227 185.34944,31.2818165 C185.317309,29.4302114 184.292052,27.9601671 182.510266,27.4809977 C181.482088,27.2029611 180.354597,27.0846477 179.294289,27.1645093 C176.554428,27.3715578 175.061817,29.0723133 175.03845,31.8497209 C175.00924,35.0293942 175.006319,38.2120254 175.03845,41.3916987 C175.050133,42.8972371 175.391886,44.3051668 176.665425,45.2842104 C177.667314,46.0562055 178.847382,46.2336757 180.062501,46.2662119 C183.205455,46.3490313 185.515934,44.9085653 185.375728,41.2349334 C185.317309,39.7146059 185.366965,38.1942784 185.366965,36.6739509 M163.532787,36.3101371 C163.716807,33.9083745 163.713886,31.1250512 164.175398,28.4215894 C165.072133,23.156642 168.253059,19.7935828 173.338451,18.4359363 C178.622468,17.0250487 183.92109,17.0250487 189.06198,19.1014493 C193.498919,20.8938977 195.859055,24.4669632 196.466615,29.1255543 C197.103384,34.0148566 197.053728,38.9514843 196.504587,43.852618 C195.861976,49.5760299 192.555449,53.4596681 187.05528,54.9030919 C182.072122,56.2134131 177.042228,56.2074975 172.14962,54.4830793 C167.438111,52.8296492 164.780037,49.2832042 164.052718,44.3643235 C163.681756,41.8324162 163.708045,39.24431 163.532787,36.3101371" id="Fill-130"></path>
            <path d="M211.812954,36.6079857 L211.757216,36.6079857 C211.757216,38.2154603 211.739614,39.8229349 211.763083,41.4274491 C211.789486,43.1711001 212.220727,44.7992972 213.901687,45.607475 C214.781771,46.0337666 215.829071,46.1995467 216.820633,46.2794764 C220.115081,46.5429483 222.168611,44.7282486 222.212615,41.5251409 C222.259553,38.2569053 222.256619,34.9857094 222.203814,31.7204342 C222.174478,29.8613291 221.485079,28.3308239 219.645703,27.5611307 C218.307975,27.001623 216.911575,26.9572176 215.526909,27.2236499 C213.16535,27.6795451 212.065245,28.7956001 211.845224,31.2142129 C211.680942,32.9963486 211.812954,34.8110482 211.812954,36.6079857 M233.782787,36.3770778 C233.592102,39.3522379 233.633173,42.004719 233.210732,44.5772703 C232.274909,50.2700394 228.845515,53.7839847 223.289251,55.0747009 C218.683478,56.1463507 214.054235,56.1404299 209.504201,54.7194579 C204.355709,53.1119834 201.404493,49.473703 200.726829,44.1539391 C200.348392,41.178779 200.371861,38.138491 200.398264,35.1307669 C200.424666,32.7121542 200.480405,30.240255 200.970318,27.8867701 C201.997083,22.937051 205.124315,19.7665073 209.958911,18.4609892 C215.265818,17.0281758 220.578592,17.0252155 225.75642,19.0441798 C229.860545,20.648694 232.31598,23.837 233.081653,28.1384006 C233.580368,30.950741 233.583301,33.8459714 233.782787,36.3770778" id="Fill-131"></path>
            <path d="M41.4153786,43.3818219 L41.4153786,43.384729 C40.5128602,43.384729 39.6073233,43.3789147 38.7078234,43.3876361 C38.4271069,43.3934503 38.1433721,43.4283358 37.8656741,43.4632212 C36.634144,43.6231127 35.9731021,44.4051276 35.9368806,45.7336808 C35.8855668,47.4110882 36.6703654,48.5564929 38.0679107,48.8094122 C40.352882,49.2251302 42.3933584,48.4809078 44.3704472,47.5070231 C44.5485361,47.4198095 44.6692743,47.0680482 44.6783297,46.8325716 C44.7115327,45.911015 44.654182,44.9865513 44.693422,44.0620876 C44.7205881,43.5039208 44.4851485,43.3556578 43.9539002,43.3760076 C43.1087325,43.4021717 42.2605463,43.3818219 41.4153786,43.3818219 M44.793031,35.7738926 C44.6753112,34.3174262 44.6632374,32.9830587 44.4398717,31.6864839 C44.2014136,30.2910669 43.0332711,29.4945165 41.1346621,29.4392812 C37.1593553,29.3288107 33.1810301,29.3055537 29.2027048,29.2503185 C28.8706747,29.2445043 28.5326076,29.2503185 28.0949314,29.2503185 C28.230762,27.840366 28.3515002,26.5030914 28.4843123,25.1658169 C28.6352351,23.6831864 28.8253978,22.200556 28.9370807,20.7092041 C28.9883945,20.0580096 29.1513911,19.7614835 29.9271343,19.7760191 C34.497077,19.8574184 39.076075,19.7934618 43.6399808,19.9766103 C45.586885,20.0580096 47.5579369,20.4475635 49.4263613,20.9882875 C53.1662285,22.0668285 55.2278341,24.6890495 55.9009498,28.3171334 C56.1907216,29.8869775 56.3899397,31.4975211 56.3989951,33.087715 C56.4503088,40.6752945 56.4231427,48.265781 56.4231427,55.8504534 C56.4231427,56.0626731 56.3989951,56.2748927 56.3869212,56.5307191 L46.6312708,56.5307191 C46.4894034,55.8301036 46.347536,55.1236738 46.1935947,54.3532873 C44.9288616,54.8533117 43.7426083,55.4056643 42.5020228,55.7981253 C38.9492999,56.9173659 35.3150786,57.45809 31.6265252,56.5190907 C27.5636831,55.4812493 24.8712202,52.3386542 24.3550642,48.3239234 C24.1015139,46.3354543 24.0924585,44.3586137 24.5905038,42.4166585 C25.4960406,38.8845094 28.01947,36.9599969 31.5842668,36.2826383 C33.3138422,35.9512268 35.1037867,35.8465705 36.8695836,35.7942424 C39.4352713,35.7128431 42.0009591,35.7738926 44.793031,35.7738926" id="Fill-132"></path>
            <path d="M87.4624533,18.9826512 L87.4624533,28.2915428 C86.1761218,28.0845471 84.9578033,27.8893797 83.7394848,27.6882982 C80.5990618,27.1767232 77.4438534,26.8218734 74.2590742,27.2536073 C71.60657,27.608457 70.3586807,28.9066157 70.3024961,31.5709458 C70.2344832,34.888791 70.2374402,38.2095931 70.299539,41.5274383 C70.335024,43.1952321 70.6780457,44.8482404 72.4552531,45.5786395 C73.3039361,45.9275751 74.2590742,46.0990858 75.1816843,46.1700557 C79.1530478,46.4894205 83.0445701,45.7826781 86.9301782,45.0966353 C87.0898607,45.0670645 87.2525003,45.0581932 87.4506249,45.0404507 C87.4742816,45.2297039 87.5127237,45.3864292 87.5127237,45.5431545 C87.5156808,48.254798 87.5008954,50.9664415 87.524552,53.6780849 C87.5275091,54.1985312 87.3589553,54.4025698 86.8592082,54.5090247 C82.8789734,55.3517929 78.8780391,55.9668658 74.7972634,55.8130976 C72.2512143,55.7155139 69.7495214,55.3517929 67.3601977,54.3996127 C62.6643487,52.5277803 60.0177587,48.9999825 59.1483761,44.1060131 C58.4534614,40.2144942 58.8437964,36.272705 58.8349252,32.3516153 C58.8319681,30.9351734 59.0596636,29.4891607 59.3967711,28.1082038 C60.7540726,22.581419 64.4445131,19.414385 69.8618906,18.1369259 C73.3394211,17.3207715 76.864265,17.2764153 80.3920659,17.7643337 C82.4915954,18.0541277 84.5763395,18.4355911 86.6669977,18.7874838 C86.9360924,18.8288829 87.1963157,18.9175954 87.4624533,18.9826512" id="Fill-133"></path>
            <path d="M280.316275,52.3152002 C280.301728,50.7581283 279.059416,49.4841603 277.572715,49.489938 C276.033645,49.4986044 274.788423,50.7956829 274.791333,52.3787541 C274.797151,53.9531589 276.059829,55.2473486 277.598899,55.2473486 C279.097238,55.2473486 280.330822,53.9127155 280.316275,52.3152002 M280.999983,52.3903094 C280.991255,54.3778149 279.495826,55.8482223 277.491252,55.8366671 C275.571051,55.822223 274.087259,54.3084833 274.090168,52.3614212 C274.095987,50.3739157 275.582688,48.8775089 277.563987,48.8572872 C279.504554,48.8399543 281.005802,50.385471 280.999983,52.3903094" id="Fill-134"></path>
            <path d="M276.775283,49.8470063 C276.775283,51.1083687 276.7571,52.2470986 276.796497,53.3858286 C276.802558,53.5493385 277.081372,53.6982494 277.232901,53.8588395 L277.466256,53.704089 L277.466256,52.2120608 C278.348155,51.9959941 278.720917,52.3405329 278.799712,53.0821673 C278.851232,53.5522584 278.975486,53.9610332 279.702826,53.6778106 C279.514929,53.0646484 279.330064,52.4602455 279.145198,51.8529229 C279.342186,51.3857516 279.627061,50.746311 279.408859,50.3900929 C278.823957,49.4207125 277.769314,49.884964 276.775283,49.8470063 M280.999915,51.7127715 C281.012037,53.3245124 279.730101,54.6734694 278.169351,54.6734694 C276.566173,54.6734694 275.24787,53.3683097 275.241809,51.7770076 C275.238778,50.1740262 276.538898,48.8659466 278.139045,48.8571872 C279.690703,48.8484277 280.984762,50.1389883 280.999915,51.7127715" id="Fill-135"></path>
            <path d="M277.276946,50.5307217 L277.276946,51.5595898 C277.980514,51.6094139 278.741224,51.6168875 278.769795,51.0513838 C278.805509,50.4235998 278.001942,50.5008272 277.276946,50.5307217 M276.39838,50.087287 C277.569802,50.1196727 278.812652,49.723571 279.501934,50.5506513 C279.759075,50.8545785 279.423363,51.4026438 279.191221,51.7987456 C279.409077,52.3169164 279.626933,52.832596 279.848361,53.3557493 C278.987651,53.5973963 278.841223,53.2486275 278.784081,52.8500345 C278.691224,52.214777 278.24837,51.9233059 277.20909,52.1051639 L277.20909,53.3806614 L276.937662,53.5102041 C276.755521,53.375679 276.430522,53.2461362 276.42338,53.1066287 C276.376951,52.1375496 276.39838,51.163488 276.39838,50.087287" id="Fill-136"></path>
            <path d="M277.063326,50.7025607 C277.530892,50.6746423 278.04913,50.6025199 278.026097,51.1888056 C278.007671,51.716928 277.517072,51.7099485 277.063326,51.6634178 L277.063326,50.7025607 Z" id="Fill-137"></path>
        </g>
    </g>
</svg>