<svg
          xmlns="http://www.w3.org/2000/svg"
          width="95"
          height="40"
          viewBox="0 0 95 40"
          fill="none"
        >
          <g clip-path="url(#clip0)">
            <path
              d="M0 30.0234H1.69419V35.7557C1.69419 36.0707 1.69419 36.4486 1.75694 36.7636C1.81968 37.0786 1.88243 37.3935 2.00793 37.7085C2.13342 37.9604 2.38441 38.2124 2.69815 38.4014C3.01189 38.5904 3.45112 38.6534 4.01585 38.6534C4.58058 38.6534 5.01981 38.5904 5.33355 38.4014C5.64729 38.2124 5.89828 38.0234 6.02378 37.7085C6.14927 37.4565 6.27477 37.1415 6.27477 36.7636C6.33752 36.4486 6.33752 36.0707 6.33752 35.7557V30.0234H8.0317V36.3226C8.0317 36.9526 7.90621 37.5195 7.71797 37.9604C7.52972 38.4644 7.27873 38.8423 6.90225 39.1573C6.52576 39.4723 6.14927 39.7242 5.64729 39.8502C5.14531 39.9762 4.58058 40.1022 4.01585 40.1022C3.38838 40.1022 2.88639 40.0392 2.38441 39.8502C1.88243 39.7242 1.4432 39.4723 1.12946 39.1573C0.752972 38.8423 0.501982 38.4644 0.313738 37.9604C0.125495 37.5195 0 36.9526 0 36.3226V30.0234Z"
              fill="black"
            />
            <path
              d="M9.60046 30.0234H11.2947V34.4959L15.6242 30.0234H17.7577L13.8673 33.9289L18.0714 39.8502H15.938L12.7378 35.1258L11.2947 36.5746V39.8502H9.60046V30.0234Z"
              fill="black"
            />
            <path
              d="M30.6836 39.8502H29.6169L29.3659 38.7164C28.9267 39.2203 28.4247 39.5983 27.9855 39.7872C27.5462 39.9762 26.9815 40.1022 26.4168 40.1022C25.6638 40.1022 25.0363 39.9762 24.4716 39.7242C23.9069 39.4723 23.4049 39.0943 23.0284 38.5904C22.6519 38.1494 22.3382 37.5825 22.0872 36.9526C21.8989 36.3227 21.7734 35.6927 21.7734 34.9368C21.7734 34.2439 21.8989 33.551 22.0872 32.9841C22.2754 32.3542 22.5892 31.7872 23.0284 31.3463C23.4049 30.9053 23.9069 30.5274 24.4716 30.2124C25.0363 29.9605 25.7265 29.7715 26.4168 29.7715C26.9187 29.7715 27.4835 29.8345 27.9227 29.9605C28.4247 30.0864 28.8012 30.3384 29.1777 30.5904C29.5542 30.8424 29.8679 31.2203 30.1189 31.6612C30.3699 32.1022 30.4954 32.5431 30.5581 33.1101H28.8639C28.8012 32.7951 28.7384 32.4801 28.5502 32.2912C28.4247 32.0392 28.2364 31.8502 27.9855 31.6612C27.7345 31.4723 27.4835 31.3463 27.2325 31.2833C26.9187 31.2203 26.6678 31.1573 26.354 31.1573C25.852 31.1573 25.4128 31.2833 24.9736 31.4723C24.5971 31.6612 24.2833 31.9762 24.0324 32.2912C23.7814 32.6691 23.5931 33.0471 23.5304 33.488C23.4049 33.929 23.3421 34.3699 23.3421 34.8738C23.3421 35.3148 23.4049 35.8187 23.5304 36.2597C23.6559 36.7006 23.8441 37.1416 24.0324 37.4565C24.2833 37.8345 24.5971 38.0864 24.9736 38.2754C25.3501 38.4644 25.7893 38.5904 26.354 38.5904C26.7933 38.5904 27.1697 38.5274 27.5462 38.4014C27.86 38.2754 28.1737 38.0864 28.4247 37.8345C28.6757 37.5825 28.8639 37.3305 28.9267 36.9526C29.0522 36.6376 29.1149 36.2597 29.1149 35.8187H26.4795V34.4959H30.6209V39.8502H30.6836Z"
              fill="black"
            />
            <path
              d="M35.2015 40.039C34.6368 40.039 34.1348 39.976 33.6956 39.7871C33.2563 39.5981 32.8798 39.3461 32.5661 39.0312C32.2524 38.7162 32.0014 38.2753 31.8759 37.8343C31.6876 37.3934 31.6249 36.8894 31.6249 36.3225C31.6249 35.7556 31.6876 35.2516 31.8759 34.8107C32.0641 34.3697 32.2524 33.9288 32.5661 33.6138C32.8798 33.2989 33.2563 33.0469 33.6956 32.8579C34.1348 32.669 34.6368 32.606 35.2015 32.606C35.7662 32.606 36.2682 32.669 36.7074 32.8579C37.1467 33.0469 37.5232 33.2989 37.8369 33.6138C38.1506 33.9288 38.4016 34.3697 38.5271 34.8107C38.7154 35.2516 38.7781 35.7556 38.7781 36.3225C38.7781 36.8894 38.7154 37.3934 38.5271 37.8343C38.3389 38.2753 38.1506 38.7162 37.8369 39.0312C37.5232 39.3461 37.1467 39.5981 36.7074 39.7871C36.2682 39.976 35.7662 40.039 35.2015 40.039ZM35.2015 38.8422C35.578 38.8422 35.829 38.7792 36.08 38.6532C36.331 38.5272 36.5192 38.3382 36.7074 38.0863C36.8957 37.8343 37.0212 37.5823 37.0839 37.2674C37.1467 36.9524 37.2094 36.6375 37.2094 36.3225C37.2094 36.0075 37.1467 35.6926 37.0839 35.4406C37.0212 35.1256 36.8957 34.8737 36.7074 34.6217C36.5192 34.3697 36.331 34.1808 36.08 34.0548C35.829 33.9288 35.5152 33.8028 35.2015 33.8028C34.825 33.8028 34.574 33.8658 34.323 34.0548C34.072 34.1808 33.8838 34.3697 33.6956 34.6217C33.5073 34.8737 33.3818 35.1256 33.3191 35.4406C33.2563 35.7556 33.1936 36.0705 33.1936 36.3225C33.1936 36.6375 33.2563 36.9524 33.3191 37.2674C33.3818 37.5823 33.5073 37.8343 33.6956 38.0863C33.8838 38.3382 34.072 38.5272 34.323 38.6532C34.574 38.7792 34.8878 38.8422 35.2015 38.8422Z"
              fill="black"
            />
            <path
              d="M38.7152 32.7319H40.4094L42.2291 38.2122L43.986 32.7319H45.6175L43.1075 39.85H41.3506L38.7152 32.7319Z"
              fill="black"
            />
            <path
              d="M47.0608 36.7004C47.0608 36.9524 47.1235 37.2674 47.1863 37.5193C47.249 37.7713 47.3745 38.0233 47.5627 38.2123C47.6882 38.4012 47.9392 38.5272 48.1275 38.6532C48.3785 38.7792 48.6294 38.8422 49.0059 38.8422C49.4452 38.8422 49.8217 38.7162 50.1354 38.5272C50.3864 38.3382 50.6374 38.0233 50.7629 37.6453H52.2688C52.2061 38.0233 52.0178 38.4012 51.8296 38.6532C51.6413 38.9682 51.3903 39.2201 51.0766 39.4091C50.7629 39.5981 50.4491 39.7871 50.1354 39.8501C49.8217 39.913 49.4452 40.039 49.0059 40.039C48.4412 40.039 47.9392 39.976 47.5 39.7871C47.0608 39.5981 46.6843 39.3461 46.4333 39.0312C46.1195 38.7162 45.9313 38.2753 45.7431 37.8343C45.6176 37.3934 45.4921 36.8894 45.4921 36.3225C45.4921 35.8186 45.5548 35.3146 45.7431 34.8737C45.9313 34.4327 46.1195 33.9918 46.4333 33.6768C46.747 33.3619 47.0608 33.0469 47.5 32.8579C47.9392 32.669 48.3785 32.543 48.9432 32.543C49.5079 32.543 50.0099 32.669 50.4491 32.9209C50.8884 33.1729 51.2648 33.4879 51.5786 33.8658C51.8923 34.2438 52.0806 34.6847 52.2061 35.1886C52.3316 35.6926 52.3943 36.1965 52.3316 36.7634H47.0608V36.7004ZM50.7001 35.6926C50.7001 35.4406 50.6374 35.1886 50.5119 34.9997C50.4491 34.7477 50.3236 34.5587 50.1354 34.3697C50.0099 34.1808 49.8217 34.0548 49.5707 33.9288C49.3824 33.8028 49.1314 33.7398 48.8804 33.7398C48.6295 33.7398 48.3785 33.8028 48.1275 33.8658C47.8765 33.9918 47.6882 34.1178 47.5627 34.2438C47.3745 34.4327 47.249 34.6217 47.1863 34.8737C47.0608 35.1256 47.0608 35.3776 46.998 35.6296H50.7001V35.6926Z"
              fill="black"
            />
            <path
              d="M53.0845 32.7319H54.5904V34.1178C54.6532 33.9288 54.7159 33.7398 54.8414 33.5508C54.9669 33.3619 55.1551 33.1729 55.3434 33.0469C55.5316 32.9209 55.7199 32.7949 55.9709 32.669C56.2219 32.606 56.4101 32.543 56.6611 32.543C56.8493 32.543 56.9748 32.543 57.0376 32.543C57.1003 32.543 57.1631 32.543 57.2258 32.543V34.1178C57.1003 34.1178 56.9748 34.0548 56.9121 34.0548C56.7866 34.0548 56.6611 34.0548 56.5983 34.0548C56.3474 34.0548 56.0964 34.1178 55.8454 34.2438C55.5944 34.3697 55.4061 34.4957 55.2179 34.6847C55.0297 34.8737 54.9042 35.1256 54.7787 35.4406C54.6532 35.7556 54.6532 36.0705 54.6532 36.5115V39.913H53.0845V32.7319V32.7319Z"
              fill="black"
            />
            <path
              d="M57.9161 32.7319H59.4221V33.8028C59.6731 33.4249 59.9868 33.1099 60.3633 32.8579C60.7398 32.606 61.179 32.543 61.6182 32.543C62.3712 32.543 62.9987 32.7319 63.4379 33.1729C63.8772 33.5508 64.1282 34.1808 64.1282 34.9997V39.913H62.5595V35.3776C62.5595 34.8107 62.434 34.4327 62.183 34.1808C61.9947 33.9288 61.6182 33.8028 61.179 33.8028C60.928 33.8028 60.677 33.8658 60.4888 33.9288C60.3005 34.0548 60.1123 34.1808 59.9241 34.3067C59.7986 34.4957 59.6731 34.6847 59.6103 34.9367C59.5476 35.1886 59.4848 35.4406 59.4848 35.6926V39.913H57.9161V32.7319V32.7319Z"
              fill="black"
            />
            <path
              d="M65.3831 32.7319H66.889V33.7398H66.9517C67.0772 33.5508 67.2027 33.4249 67.3282 33.2359C67.4537 33.1099 67.642 32.9839 67.7675 32.8579C67.9557 32.7319 68.144 32.669 68.3322 32.606C68.5832 32.543 68.8342 32.543 69.0852 32.543C69.5244 32.543 69.9009 32.669 70.2774 32.8579C70.6539 33.0469 70.9049 33.3619 71.0931 33.7398C71.3441 33.3619 71.6578 33.1099 72.0343 32.8579C72.4108 32.669 72.7873 32.543 73.352 32.543C74.105 32.543 74.6697 32.7319 75.1089 33.1099C75.5482 33.4879 75.7364 34.1178 75.7364 34.9367V39.8501H74.1677V35.6926C74.1677 35.3776 74.1677 35.1256 74.1677 34.9367C74.1677 34.6847 74.105 34.4957 73.9795 34.3067C73.9167 34.1178 73.7913 33.9918 73.603 33.9288C73.4148 33.8658 73.1638 33.8028 72.9128 33.8028C72.4108 33.8028 71.9716 33.9918 71.7833 34.3067C71.5323 34.6217 71.4068 35.1256 71.4068 35.6926V39.8501H69.8381V35.2516C69.8381 34.7477 69.7754 34.3697 69.5872 34.1178C69.3989 33.8658 69.0852 33.7398 68.5832 33.7398C68.395 33.7398 68.2067 33.8028 68.0185 33.8658C67.8302 33.9288 67.642 34.0548 67.5165 34.2438C67.391 34.3697 67.2655 34.6217 67.2027 34.8107C67.14 35.0627 67.0772 35.3146 67.0772 35.5666V39.7871H65.5086V32.7319H65.3831Z"
              fill="black"
            />
            <path
              d="M78.1208 36.7004C78.1208 36.9524 78.1836 37.2674 78.2463 37.5193C78.3091 37.7713 78.4346 38.0233 78.6228 38.2123C78.7483 38.4012 78.9993 38.5272 79.1875 38.6532C79.4385 38.7792 79.6895 38.8422 80.066 38.8422C80.5052 38.8422 80.8817 38.7162 81.1955 38.5272C81.4464 38.3382 81.6974 38.0233 81.8229 37.6453H83.3289C83.2661 38.0233 83.0779 38.4012 82.8896 38.6532C82.7014 38.9682 82.4504 39.2201 82.1367 39.4091C81.8229 39.5981 81.5092 39.7871 81.1955 39.8501C80.8817 39.913 80.5052 40.039 80.066 40.039C79.5013 40.039 78.9993 39.976 78.56 39.7871C78.1208 39.5981 77.7443 39.3461 77.4933 39.0312C77.1796 38.7162 76.9914 38.2753 76.8031 37.8343C76.6776 37.3934 76.5521 36.8894 76.5521 36.3225C76.5521 35.8186 76.6149 35.3146 76.8031 34.8737C76.9914 34.4327 77.1796 33.9918 77.4933 33.6768C77.8071 33.3619 78.1208 33.0469 78.56 32.8579C78.9993 32.669 79.4385 32.543 80.0032 32.543C80.568 32.543 81.07 32.669 81.5092 32.9209C81.9484 33.1729 82.3249 33.4879 82.6386 33.8658C82.9524 34.2438 83.1406 34.6847 83.2661 35.1886C83.3916 35.6926 83.4544 36.1965 83.3916 36.7634H78.1208V36.7004ZM81.7602 35.6926C81.7602 35.4406 81.6974 35.1886 81.5719 34.9997C81.5092 34.7477 81.3837 34.5587 81.1955 34.3697C81.07 34.1808 80.8817 34.0548 80.6307 33.9288C80.4425 33.8028 80.1915 33.7398 79.9405 33.7398C79.6895 33.7398 79.4385 33.8028 79.1875 33.8658C78.9365 33.9918 78.7483 34.1178 78.6228 34.2438C78.4346 34.4327 78.3091 34.6217 78.2463 34.8737C78.1208 35.1256 78.1208 35.3776 78.0581 35.6296H81.7602V35.6926Z"
              fill="black"
            />
            <path
              d="M84.1447 32.7319H85.6506V33.8028C85.9016 33.4249 86.2153 33.1099 86.5918 32.8579C86.9683 32.606 87.4075 32.543 87.8468 32.543C88.5997 32.543 89.2272 32.7319 89.6664 33.1729C90.1057 33.5508 90.3567 34.1808 90.3567 34.9997V39.913H88.788V35.3776C88.788 34.8107 88.6625 34.4327 88.4115 34.1808C88.2232 33.9288 87.8468 33.8028 87.4075 33.8028C87.1565 33.8028 86.9055 33.8658 86.7173 33.9288C86.5291 34.0548 86.3408 34.1808 86.1526 34.3067C86.0271 34.4957 85.9016 34.6847 85.8388 34.9367C85.7761 35.1886 85.7133 35.4406 85.7133 35.6926V39.913H84.1447V32.7319V32.7319Z"
              fill="black"
            />
            <path
              d="M90.8588 32.7321H92.051V30.5903H93.6197V32.7321H95.0629V33.9289H93.6197V37.7084C93.6197 37.8974 93.6197 38.0234 93.6197 38.1494C93.6197 38.2754 93.6824 38.4014 93.7452 38.4643C93.8079 38.5273 93.8707 38.5903 93.9961 38.6533C94.1216 38.7163 94.2471 38.7163 94.4354 38.7163C94.5609 38.7163 94.6864 38.7163 94.7491 38.7163C94.8746 38.7163 94.9374 38.7163 95.0629 38.6533V39.8502C94.8746 39.8502 94.7491 39.9132 94.5609 39.9132C94.3726 39.9132 94.2471 39.9132 94.0589 39.9132C93.6197 39.9132 93.3059 39.8502 93.0549 39.7872C92.8039 39.7242 92.6157 39.5982 92.4902 39.4722C92.3647 39.3462 92.2392 39.1573 92.1765 38.9053C92.1137 38.6533 92.1137 38.4014 92.1137 38.1494V33.9289H90.9215V32.7321H90.8588Z"
              fill="black"
            />
            <path
              d="M0.0625 8.69272H9.60015L0.0625 3.2124V8.69272Z"
              fill="black"
            />
            <path
              d="M19.0751 8.12598L5.33337 0H19.0751V8.12598Z"
              fill="black"
            />
            <path
              d="M0.0625 1.88976L11.7963 8.8189H15.1219L0.0625 0V1.88976Z"
              fill="black"
            />
            <path
              d="M45.9938 23.5589V18.1416H36.4562L45.9938 23.5589Z"
              fill="black"
            />
            <path
              d="M26.9813 18.6455L40.7231 26.7715H26.9813V18.6455Z"
              fill="black"
            />
            <path
              d="M30.9343 17.9526H34.26L45.9938 24.8818V26.7715L30.9343 17.9526Z"
              fill="black"
            />
            <path
              d="M0.0625 18.1416V23.5589L9.60015 18.1416H0.0625Z"
              fill="black"
            />
            <path
              d="M19.0751 18.6455L5.33337 26.7715H19.0751V18.6455Z"
              fill="black"
            />
            <path
              d="M45.9938 3.2124V8.69272H36.4562L45.9938 3.2124Z"
              fill="black"
            />
            <path
              d="M26.9813 8.12598L40.7231 0H26.9813V8.12598Z"
              fill="black"
            />
            <path
              d="M14.871 18.1416L0.0625 26.7715H3.13714L17.8828 18.1416H14.871Z"
              fill="black"
            />
            <path
              d="M31.1852 8.69291H28.1106L42.919 0H45.9937L31.1852 8.69291Z"
              fill="black"
            />
            <path
              d="M46.1193 10.7715H0.125244V16.2518H46.1193V10.7715Z"
              fill="black"
            />
            <path d="M25.8519 0H20.3928V26.7717H25.8519V0Z" fill="black" />
          </g>
          <defs>
            <clipPath id="clip0">
              <path d="M0 0H95V40H0V0Z" fill="black" />
            </clipPath>
          </defs>
        </svg>