<svg xmlns="http://www.w3.org/2000/svg" xmlns:xlink="http://www.w3.org/1999/xlink" version="1.1" id="Layer_1" x="0px" y="0px" viewBox="0 0 95.6 28.3" style="enable-background: new 0 0 95.6 28.3;" xml:space="preserve"> <style>
.st0 { fill: #000; }
 </style> <g> <g> <path class="st0" d="M49.1,6.8v3c0,1,0.2,1.4,1,1.4S51,10.8,51,9.8v-3h1v2.9c0,1.5-0.5,2.2-1.9,2.2s-1.9-0.6-1.9-2.1v-3H49.1z"/> <path class="st0" d="M52.9,8.2h0.8l0.1,0.4c0.4-0.3,0.8-0.4,1.3-0.4c0.7,0,1.1,0.4,1.1,1.2v2.5h-1V9.6c0-0.5-0.1-0.6-0.4-0.6 c-0.2,0-0.5,0.1-0.8,0.3v2.5h-1L52.9,8.2L52.9,8.2z"/> <path class="st0" d="M57.6,7.6c-0.4,0-0.5-0.1-0.5-0.5s0.1-0.5,0.5-0.5s0.5,0.1,0.5,0.5S58,7.6,57.6,7.6z M57.1,8.2h1v3.6h-1V8.2z "/> <path class="st0" d="M59.2,8.2v-1l1-0.1v1.1h0.7v0.7h-0.8v1.7c0,0.4,0.1,0.5,0.4,0.5c0.2,0,0.3,0,0.4-0.1l0.1,0.7 c-0.2,0.1-0.5,0.1-0.8,0.1c-0.8,0-1-0.3-1-1v-2h-0.5V8.1L59.2,8.2L59.2,8.2z"/> <path class="st0" d="M64.3,11.7c-0.4,0.1-0.8,0.1-1.2,0.1c-1.1,0-1.7-0.3-1.7-1.8S62,8.1,63,8.1s1.4,0.3,1.4,1.6 c0,0.2,0,0.4,0,0.5h-2.1c0,0.7,0.2,0.9,0.9,0.9c0.4,0,0.6-0.1,1-0.1L64.3,11.7z M63.7,9.7c0-0.7-0.2-0.8-0.6-0.8s-0.6,0.2-0.6,0.8 H63.7z"/> <path class="st0" d="M67.5,11.4c-0.4,0.2-0.7,0.4-1.1,0.4c-0.8,0-1.2-0.4-1.2-1.8s0.7-1.9,1.5-1.9c0.3,0,0.5,0.1,0.8,0.2l0,0 c0-0.3,0-0.5,0-0.7V6.5h1v5.3h-0.8L67.5,11.4z M67.4,9.1C67.2,9,67,8.9,66.8,8.9c-0.4,0-0.7,0.2-0.7,1.1s0.2,1.1,0.6,1.1 c0.2,0,0.4-0.1,0.7-0.3V9.1z"/> <path class="st0" d="M71.4,6.8h1.2L74,9.4c0.2,0.4,0.4,0.8,0.6,1.3l0,0c-0.1-0.5-0.1-1-0.1-1.3V6.8h0.8v5h-1.2l-1.4-2.6 c-0.2-0.4-0.4-0.8-0.6-1.3l0,0c0,0.5,0.1,1,0.1,1.3v2.6h-0.8V6.8z"/> <path class="st0" d="M78.6,11.4c-0.4,0.2-0.7,0.4-1.1,0.4c-0.8,0-1.2-0.4-1.2-1.8s0.7-1.9,1.5-1.9c0.3,0,0.6,0.1,0.9,0.2V8.1h0.8 v3.6h-0.8L78.6,11.4z M78.5,9.1c-0.2-0.1-0.4-0.2-0.6-0.2c-0.4,0-0.7,0.2-0.7,1.1s0.2,1.1,0.6,1.1c0.2,0,0.4-0.1,0.7-0.3V9.1z"/> <path class="st0" d="M80.6,8.2v-1l1-0.1v1.1h0.8v0.7h-0.8v1.7c0,0.4,0.1,0.5,0.4,0.5c0.2,0,0.3,0,0.4-0.1l0.1,0.7 c-0.2,0.1-0.5,0.1-0.8,0.1c-0.8,0-1-0.3-1-1v-2h-0.5V8.1L80.6,8.2L80.6,8.2z"/> <path class="st0" d="M83.5,7.6c-0.4,0-0.5-0.1-0.5-0.5s0.1-0.5,0.5-0.5S84,6.7,84,7.1S83.9,7.6,83.5,7.6z M83,8.2h1v3.6h-1V8.2z"/> <path class="st0" d="M86.4,11.9c-1.1,0-1.6-0.4-1.6-1.9s0.6-1.9,1.7-1.9s1.6,0.4,1.6,1.9C88.1,11.4,87.5,11.9,86.4,11.9z M86.5,8.8C86,8.8,85.8,9,85.8,10s0.2,1.2,0.7,1.2s0.7-0.2,0.7-1.2C87.2,9,86.9,8.8,86.5,8.8z"/> <path class="st0" d="M89,8.2h0.8l0.1,0.4c0.4-0.3,0.8-0.4,1.3-0.4c0.8,0,1.1,0.4,1.1,1.2v2.5h-1V9.6c0-0.5-0.1-0.6-0.4-0.6 c-0.2,0-0.5,0.1-0.8,0.3v2.5h-1L89,8.2L89,8.2z"/> <path class="st0" d="M93,11c0.4,0.1,0.7,0.1,1,0.1c0.4,0,0.6-0.1,0.6-0.4c0-0.2-0.1-0.3-0.7-0.5c-0.7-0.3-0.9-0.5-0.9-1 c0-0.7,0.5-1.1,1.5-1.1c0.3,0,0.6,0.1,0.9,0.1l-0.1,0.7c-0.3-0.1-0.5-0.1-0.8-0.1c-0.4,0-0.6,0.1-0.6,0.3c0,0.2,0.1,0.3,0.7,0.5 c0.7,0.3,1,0.5,1,1.1c0,0.7-0.4,1.1-1.6,1.1c-0.4,0-0.7-0.1-1-0.1V11z"/> <path class="st0" d="M51.2,20.9c-0.3,0.1-0.7,0.2-1.1,0.2c-1.3,0-1.9-0.4-1.9-2.6c0-2.1,0.7-2.6,1.9-2.6c0.4,0,0.8,0.1,1.1,0.1 l-0.1,0.3c-0.3-0.1-0.6-0.1-1-0.1c-1,0-1.5,0.3-1.5,2.2c0,1.9,0.5,2.2,1.5,2.2c0.3,0,0.7-0.1,1-0.2L51.2,20.9z"/> <path class="st0" d="M52.2,15.7h0.4V21h-0.4V15.7z"/> <path class="st0" d="M54.2,16.6c-0.3,0-0.3-0.1-0.3-0.3S54,16,54.2,16s0.3,0.1,0.3,0.3C54.5,16.5,54.4,16.6,54.2,16.6z M54,17.5 h0.4V21H54V17.5z"/> <path class="st0" d="M55.6,17.5H56v0.4c0.5-0.3,0.9-0.5,1.3-0.5c0.5,0,0.7,0.2,0.9,0.5c0.5-0.3,1-0.5,1.4-0.5c0.7,0,1,0.3,1,1.2 V21h-0.4v-2.4c0-0.6-0.2-0.9-0.7-0.9c-0.3,0-0.7,0.2-1.2,0.5c0,0.1,0,0.2,0,0.4V21h-0.4v-2.4c0-0.6-0.2-0.9-0.7-0.9 c-0.3,0-0.7,0.2-1.2,0.5V21h-0.4V17.5z"/> <path class="st0" d="M64.1,20.6c-0.4,0.3-0.8,0.4-1.2,0.4c-0.8,0-1.2-0.4-1.2-1.8c0-1.4,0.7-1.9,1.5-1.9c0.4,0,0.7,0.1,1,0.3v-0.2 h0.4v3.5h-0.4L64.1,20.6z M64.1,18c-0.3-0.2-0.6-0.3-0.9-0.3c-0.5,0-1.1,0.3-1.1,1.5s0.3,1.5,0.9,1.5c0.3,0,0.6-0.2,1.1-0.4V18z"/> <path class="st0" d="M65.9,17.5v-1.1l0.4-0.1v1.1h0.8v0.3h-0.8v2.4c0,0.4,0.1,0.5,0.4,0.5c0.2,0,0.3,0,0.4-0.1v0.3 c-0.2,0.1-0.3,0.1-0.6,0.1c-0.5,0-0.7-0.2-0.7-0.7v-2.5h-0.5v-0.3h0.6V17.5z"/> <path class="st0" d="M70.4,20.9C70.1,21,69.7,21,69.3,21c-0.9,0-1.4-0.3-1.4-1.8s0.6-1.9,1.4-1.9c0.9,0,1.3,0.3,1.3,1.6 c0,0.1,0,0.2,0,0.3h-2.3c0,1.3,0.4,1.4,1.1,1.4c0.3,0,0.6-0.1,0.9-0.1L70.4,20.9z M70.2,19c0-1-0.3-1.3-0.9-1.3s-1,0.2-1,1.3H70.2 z"/> <path class="st0" d="M76,20.9c-0.3,0.1-0.7,0.2-1.1,0.2c-1.3,0-1.9-0.4-1.9-2.6c0-2.1,0.7-2.6,1.9-2.6c0.4,0,0.8,0.1,1.1,0.1 l-0.1,0.4c-0.3-0.1-0.6-0.1-1-0.1c-1,0-1.5,0.3-1.5,2.2s0.5,2.2,1.5,2.2c0.3,0,0.7-0.1,1-0.2L76,20.9z"/> <path class="st0" d="M77,15.7h0.4V17c0,0.3,0,0.6,0,0.9l0,0c0.4-0.3,0.9-0.4,1.4-0.4c0.7,0,1.1,0.3,1.1,1.2v2.4h-0.4v-2.4 c0-0.6-0.2-0.9-0.7-0.9c-0.4,0-0.8,0.2-1.2,0.5v2.8h-0.4v-5.4H77z"/> <path class="st0" d="M83.3,20.6c-0.4,0.3-0.8,0.4-1.2,0.4c-0.8,0-1.2-0.4-1.2-1.8c0-1.4,0.7-1.9,1.5-1.9c0.4,0,0.7,0.1,1,0.3v-0.2 h0.4v3.5h-0.4L83.3,20.6z M83.3,18c-0.3-0.2-0.6-0.3-0.9-0.3c-0.5,0-1.1,0.3-1.1,1.5s0.3,1.5,0.9,1.5c0.3,0,0.6-0.2,1.1-0.4V18z"/> <path class="st0" d="M84.9,17.5h0.4v0.4c0.5-0.3,0.9-0.5,1.4-0.5c0.7,0,1.1,0.3,1.1,1.2V21h-0.4v-2.4c0-0.6-0.2-0.9-0.7-0.9 c-0.4,0-0.8,0.2-1.2,0.5V21h-0.6V17.5z"/> <path class="st0" d="M91.7,21.2c0,1-0.5,1.4-1.5,1.4c-0.4,0-0.7,0-1.1-0.1l0.1-0.3c0.3,0.1,0.6,0.1,1,0.1c0.8,0,1.1-0.3,1.1-1.1 v-0.6l0,0c-0.4,0.2-0.7,0.4-1.2,0.4c-0.8,0-1.2-0.4-1.2-1.8c0-1.4,0.7-1.9,1.5-1.9c0.4,0,0.7,0.1,1,0.3v-0.2h0.4v3.8H91.7z M91.2,18c-0.3-0.2-0.6-0.3-0.9-0.3c-0.5,0-1.1,0.3-1.1,1.5s0.3,1.5,0.9,1.5c0.3,0,0.6-0.2,1.1-0.4V18z"/> <path class="st0" d="M95.3,20.9C95,21,94.6,21,94.2,21c-0.9,0-1.4-0.3-1.4-1.8s0.6-1.9,1.4-1.9c0.9,0,1.3,0.3,1.3,1.6 c0,0.1,0,0.2,0,0.3h-2.3c0,1.3,0.4,1.4,1.1,1.4c0.3,0,0.6-0.1,0.9-0.1L95.3,20.9z M95.1,19c0-1-0.3-1.3-0.9-1.3s-1,0.2-1,1.3H95.1 z"/> </g> <g> <path class="st0" d="M24.7,25.8C22.9,25,21,24,18.9,24.5c-0.2,0-0.4,0.1-0.7,0.1c-0.2,0-0.4-0.1-0.7-0.1c-2.2-0.5-4,0.5-5.8,1.3 c-1.3,0.5-3.1,0.4-4.3-0.4c0.6,0.7,1.4,1.2,2.2,1.5c1.5,0.6,3.3,0.2,4.5-0.7c1.1-0.6,2-1.8,3.4-1.3c-1.4,0.7-2.7,1.6-3.9,2.8 l0.7,0.6c0.9-1.2,2-2.1,3.2-2.8c0.3-0.1,0.4-0.3,0.7-0.3c0.3,0,0.5,0.2,0.7,0.3c1.2,0.7,2.3,1.7,3.2,2.8l0.7-0.6 c-1.2-1.2-2.5-2.1-3.9-2.8c1.4-0.4,2.3,0.7,3.4,1.3c1.2,0.9,3,1.3,4.5,0.7c0.8-0.3,1.6-0.8,2.2-1.5C27.8,26.3,26,26.4,24.7,25.8z"/> <path class="st0" d="M4.6,7.9c0.3-0.6,0.5-1.3,0.6-2C5.1,6.2,4.9,6.4,4.7,6.7c-1,0.9-2.2,1.9-2.4,3.2c0,0.2,0,0.4-0.1,0.6 c0,0,0,0-0.1,0l0.1-1.7c0-1.6-0.7-3.4,0.2-4.8c0,0,0,0-0.1,0C1.5,5.1,0.8,6.3,0.9,7.7c-0.1,1.8,1,3.1,1.2,4.7 C2.4,10.7,3.9,9.4,4.6,7.9z"/> <path class="st0" d="M5.7,20.9c-0.2-0.4-0.4-0.8-0.6-1.3c-0.5-2.1-0.2-4.5-1.1-6.4c0.2,1.1-0.3,2.1-0.4,3.1 c-0.1,0.9,0,1.7,0.4,2.4c0.1,0.2,0.3,0.4,0.3,0.6c-0.3-0.3-0.5-0.7-0.8-1c-1-1.7-3.2-2.8-3.4-4.8c-0.1,0.9,0,1.9,0.3,2.7 C1.3,18.5,3.8,19.7,5.7,20.9z"/> <path class="st0" d="M2.6,8.2C2.9,7.6,3.4,7,4,6.6c1.3-0.9,2.7-2.2,2.7-3.9C6.3,3.9,5,4.4,4.1,5.2c-0.4,0.4-0.8,0.9-1,1.5l0,0 c0.1-0.5,0.3-0.9,0.4-1.4C3.9,4,3.8,2.5,5,1.7C4.4,1.9,3.8,2.2,3.4,2.8c-1,1.1-0.9,2.7-0.8,4.1C2.7,7.4,2.6,7.8,2.6,8.2z"/> <path class="st0" d="M3,16.8L3,16.8c0-0.6-0.1-1.3,0.1-2c0.3-1,0.6-2,0.8-3.1C4,10.9,4.2,9.9,4.1,9.1C4,9.5,3.9,9.9,3.6,10.3 c-0.9,1.4-1.8,3-1.2,4.8c0,0,0,0-0.1,0C2,14.5,2,13.8,1.8,13.2c-0.4-1.7-1.7-3.1-1.3-5C0.3,8.6,0.2,9.1,0.1,9.5 c-0.2,1.2,0,2.4,0.3,3.5C1,14.6,2.3,15.6,3,16.8z"/> <path class="st0" d="M4.1,4.6C4.8,4,5.6,3.5,6.2,2.7C6.9,1.8,7.5,0.8,8.4,0C7.2,0.5,5.8,0.9,5,2.2C4.5,2.9,4.5,3.9,4.1,4.6z"/> <path class="st0" d="M34,8.8l0.1,1.7c0,0,0,0.1-0.1,0c-0.1-0.2-0.1-0.4-0.1-0.6c-0.2-1.3-1.4-2.3-2.4-3.2 c-0.2-0.2-0.4-0.5-0.5-0.8c0.1,0.7,0.3,1.3,0.6,2c0.8,1.5,2.2,2.8,2.5,4.6c0.1-1.7,1.3-3,1.2-4.7c0-1.5-0.6-2.6-1.4-3.7 c0,0,0,0-0.1,0C34.8,5.4,34,7.1,34,8.8z"/> <path class="st0" d="M34.3,13.4c-0.2,0.6-0.2,1.3-0.5,1.9c0,0,0,0-0.1,0c0.6-1.8-0.3-3.4-1.2-4.8c-0.2-0.4-0.4-0.8-0.5-1.2 c-0.1,0.8,0.1,1.7,0.2,2.6C32.4,13,32.8,14,33,15c0.2,0.6,0.1,1.4,0,2l0.1-0.1c0.7-1.2,2-2.2,2.4-3.6c0.3-1.1,0.5-2.3,0.3-3.5 c0.1-0.5,0.1-1-0.1-1.4C36,10.3,34.7,11.7,34.3,13.4z"/> <path class="st0" d="M32.8,5.3c0.1,0.5,0.3,0.9,0.4,1.4l0,0c-0.2-0.5-0.6-1-1-1.5c-0.9-0.8-2.1-1.3-2.6-2.5c0,1.6,1.4,2.9,2.7,3.9 c0.5,0.5,1.1,1,1.4,1.6c0-0.4-0.1-0.8,0-1.3c0.1-1.4,0.2-3.1-0.8-4.1c-0.4-0.5-1-0.9-1.6-1.1C32.5,2.5,32.4,4,32.8,5.3z"/> <path class="st0" d="M30.1,2.7c0.6,0.7,1.4,1.2,2.1,1.9c-0.4-0.8-0.4-1.7-0.9-2.4c-0.7-1.3-2.1-1.8-3.4-2.2 C28.8,0.8,29.5,1.8,30.1,2.7z"/> <path class="st0" d="M29.7,22.1c-0.3,0.2-0.5,0.4-0.8,0.6l0,0c-0.1,0-0.1,0.1-0.2,0.1l0,0c0,0,0.1,0,0.1-0.1l0,0 c0.4-0.3,0.8-0.7,1-1.2c1-1.4,0.7-3.4,1.4-4.9c-0.7,0.8-1.3,1.7-1.7,2.6c-0.5,1.1-0.7,2.4-1.4,3.4l0,0c-0.2,0.3-0.5,0.7-0.9,1 c1.3-0.4,2.8-0.4,4.1-1c0.2-0.1,0.4-0.2,0.6-0.4c1.5-0.9,2.8-2.5,3.1-4.2C34,20.5,31.4,20.7,29.7,22.1z"/> <path class="st0" d="M36.1,13.5c-0.1,2-2.3,3.1-3.4,4.8c-0.2,0.3-0.4,0.7-0.8,1c0-0.2,0.3-0.4,0.3-0.6c0.4-0.7,0.5-1.6,0.4-2.4 c-0.1-1-0.5-2-0.4-3.1c-0.9,1.9-0.6,4.3-1.1,6.4c-0.1,0.5-0.4,0.9-0.6,1.3c1.8-1.2,4.3-2.4,5.1-4.7C36.1,15.4,36.2,14.4,36.1,13.5 z"/> <path class="st0" d="M25.9,24.3c-0.3,0-0.6,0.2-0.9,0.1c0.3-0.2,0.6-0.1,0.9-0.3c0.7-0.3,1.2-0.8,1.6-1.4l0,0 c0.5-0.8,0.8-1.6,1.3-2.3c-1,0.7-1.8,1.5-2.7,2.3l0,0c-0.2,0.2-0.4,0.4-0.6,0.5c-0.8,0.7-1.7,1-2.7,1.2c0.2,0.1,0.6,0.1,0.8,0.1 c1.8,0.4,3.8,1.2,5.7,0.5c1.2-0.4,2.4-1.3,3-2.4c0-0.1,0.1-0.1,0.1-0.2c-0.1,0.1-0.1,0.1-0.2,0.2C30.6,24.3,28,23.8,25.9,24.3z"/> <path class="st0" d="M12.7,24.6c0.3-0.1,0.6,0,0.8-0.1c-1-0.2-1.9-0.5-2.7-1.2c-0.2-0.2-0.4-0.4-0.6-0.5l0,0 c-0.9-0.9-1.7-1.7-2.7-2.3c0.5,0.7,0.8,1.6,1.3,2.3l0,0c0.4,0.6,0.8,1.1,1.6,1.4c0.3,0.1,0.6,0.1,0.9,0.3c-0.3,0-0.6-0.1-0.9-0.1 c-2.1-0.5-4.7,0.1-6.3-1.5C4,22.8,4,22.8,3.9,22.7c0,0.1,0.1,0.1,0.1,0.2c0.7,1.1,1.9,2,3,2.4C9,25.8,10.9,25,12.7,24.6z"/> <path class="st0" d="M5,22.7c1.3,0.6,2.8,0.5,4.1,1c-0.4-0.3-0.6-0.6-0.9-1l0,0c-0.7-1-0.9-2.3-1.4-3.4c-0.4-0.9-1-1.8-1.7-2.6 c0.8,1.5,0.4,3.5,1.4,4.9c0.3,0.4,0.7,0.8,1,1.2l0,0c0,0,0.1,0,0.1,0.1l0,0c-0.1,0-0.1-0.1-0.2-0.1l0,0c-0.3-0.2-0.6-0.4-0.8-0.6 c-1.7-1.4-4.3-1.6-5.3-3.9c0.3,1.7,1.6,3.2,3.1,4.2C4.6,22.5,4.8,22.6,5,22.7z"/> <path class="st0" d="M18.2,21.9c4.3,0,8-2.5,9.7-6.2l-2.4-1.1c-1.3,2.7-4.1,4.6-7.3,4.6c-4.4,0-8-3.6-8-8s3.6-8,8-8 c3.2,0,6,1.9,7.3,4.6l2.4-1.1c-1.7-3.7-5.4-6.2-9.7-6.2c-5.9,0-10.7,4.8-10.7,10.7C7.4,17.1,12.2,21.9,18.2,21.9z"/> <path class="st0" d="M18.2,7.7c1.2,0,2.2,0.6,2.9,1.5l2-1.4c-1.2-1.5-3-2.5-4.9-2.5c-3.3,0-5.9,2.6-5.9,5.9s2.6,5.9,5.9,5.9 c2,0,3.8-1,4.8-2.5l-2-1.4c-0.6,0.9-1.7,1.5-2.9,1.5c-1.9,0-3.5-1.6-3.5-3.5C14.7,9.3,16.2,7.7,18.2,7.7z"/> </g> </g> </svg>